<?xml version="1.0" standalone="no"?>
<!DOCTYPE svg PUBLIC "-//W3C//DTD SVG 1.1//EN" "http://www.w3.org/Graphics/SVG/1.1/DTD/svg11.dtd">
<svg t="1694431328114" class="icon" viewBox="0 0 1024 1024" version="1.1"
    xmlns="http://www.w3.org/2000/svg" p-id="4169"
    xmlns:xlink="http://www.w3.org/1999/xlink" width="200" height="200">
    <path d="M821.3 233.1h-0.1c-17-0.8-43.5-2.7-74-7.3-99.4-19.8-171.8-66.4-198.3-85.5-6.5-4.7-14.2-7.1-22.1-7.1-1.2 0-2.4 0.1-3.6 0.2-1.2-0.1-2.4-0.2-3.6-0.2-8 0-15.6 2.5-22.2 7.1-26.5 19.1-98.8 65.7-198.3 85.5-30.5 4.6-57.1 6.5-74.1 7.3-20.3 1-36.1 17.6-36.1 37.9v265.8c0 37.6 18.3 88.8 51.7 144.2l0.5 0.8c33.4 56.5 77.2 109.3 123.3 148.7 54.8 46.9 109.5 71.7 158.3 71.7h1.1c48.7 0 103.4-24.8 158.2-71.7 46-39.4 89.8-92.2 123.2-148.6l0.6-0.9c33.3-55.4 51.6-106.7 51.6-144.2V271c0-20.3-15.9-36.9-36.1-37.9z m-62.1 430.8c-18 29-39.9 58.2-63.5 84.5-0.4 0.5-0.8 0.8-1.4 1.4l-0.5 0.5-0.5 0.5C633 815 569.4 853.5 523.2 853.8c-46.3-0.3-109.9-38.8-170.2-102.9l-0.5-0.5c-0.8-0.9-1.7-1.7-2.5-2.4-23.1-25.9-44.8-54.8-62.9-84.1l-3.1-5.1c-0.6-1.1-1.2-2.2-2-3.3l-0.4-0.7c-0.7-1.2-1.5-2.5-2.2-3.6-24.9-42.7-39.1-81.1-39.1-105.4V282.4c22.9-1.6 46-4.6 68.6-9.2 64.6-10 153.6-32.7 214.2-84.7 60.7 51.9 149.6 74.7 214.2 84.7 22.7 4.5 45.7 7.6 68.6 9.2v263.5c0 24.2-14.2 62.6-39.1 105.3-0.7 1.2-1.5 2.5-2.2 3.7l-0.4 0.7c-0.7 1-1.4 2.1-2 3.2l-3 5.1z" fill="#4E30DC" p-id="4170"></path>
    <path d="M666.1 369.8c-5.7-2.9-12.2-3.4-18.3-1.5-6.1 2-11.1 6.2-14 11.9L523.1 596.5 411.4 378.2c-2.9-5.7-7.9-9.9-14-11.9s-12.6-1.4-18.3 1.5c-11.8 6-16.4 20.5-10.4 32.3l131.6 257.1c1.3 2.6 3.1 4.9 5.2 6.8 2 2.3 4.4 4.2 7.2 5.6 3.4 1.7 7.1 2.6 10.9 2.6 9.1 0 17.3-5 21.4-13.1L676.6 402c2.9-5.7 3.4-12.2 1.5-18.3-2-6-6.3-11-12-13.9z" fill="#FF4E7D" p-id="4171"></path>
</svg>