<?xml version="1.0" standalone="no"?><!DOCTYPE svg PUBLIC "-//W3C//DTD SVG 1.1//EN" "http://www.w3.org/Graphics/SVG/1.1/DTD/svg11.dtd"><svg class="icon" width="200px" height="200.00px" viewBox="0 0 1024 1024" version="1.1" xmlns="http://www.w3.org/2000/svg"><path d="M768 768h-85.333333a32 32 0 0 1 0-64h85.333333a149.333333 149.333333 0 0 0 0-298.666667h-1.066667c0.576-7.061333 1.066667-14.122667 1.066667-21.333333a256 256 0 0 0-512 0c0 7.210667 0.490667 14.272 1.066667 21.333333H256a149.333333 149.333333 0 0 0 0 298.666667h64a32 32 0 0 1 0 64h-64a213.333333 213.333333 0 0 1-62.250667-417.386667 320 320 0 0 1 636.501334 0A213.333333 213.333333 0 0 1 768 768z" fill="#5B8DF0" /><path d="M501.333333 512a32 32 0 1 1-32 32 32 32 0 0 1 32-32z m133.802667 326.954667l-110.165333 110.165333a32.576 32.576 0 0 1-45.397334 2.773333l-115.861333-115.84a27.306667 27.306667 0 0 1 38.634667-38.613333L469.333333 864.426667V650.666667a32 32 0 0 1 64 0v214.677333l64-64a26.666667 26.666667 0 0 1 37.802667 37.610667z" fill="#F2A355" /></svg>