<?xml version="1.0" standalone="no"?><!DOCTYPE svg PUBLIC "-//W3C//DTD SVG 1.1//EN" "http://www.w3.org/Graphics/SVG/1.1/DTD/svg11.dtd"><svg class="icon" width="200px" height="198.83px" viewBox="0 0 1030 1024" version="1.1" xmlns="http://www.w3.org/2000/svg"><path d="M884.495955 668.85808H351.559152l-89.569211-403.061448H167.94227v-44.784605h129.875355l89.569211 403.061448h497.109119v44.784605zM750.142139 847.996501a67.176908 67.176908 0 1 1 67.176908-67.176908 67.176908 67.176908 0 0 1-67.176908 67.176908z m0-89.56921a22.392303 22.392303 0 1 0 22.392302 22.392302 22.392303 22.392303 0 0 0-22.392302-22.392302zM414.257599 847.996501a67.176908 67.176908 0 1 1 67.176908-67.176908 67.176908 67.176908 0 0 1-67.176908 67.176908z m0-89.56921a22.392303 22.392303 0 1 0 22.392303 22.392302 22.392303 22.392303 0 0 0-22.392303-22.392302z" fill="#2AADD3" /><path d="M615.788323 579.288869a22.392303 22.392303 0 0 1-15.898535-6.71769L447.846053 420.303521a113.528974 113.528974 0 0 1 0-160.776733 113.97682 113.97682 0 0 1 160.55281 0l7.613383 7.613383 7.613383-7.613383A113.528974 113.528974 0 0 1 783.730593 420.303521l-152.267658 152.267658a22.392303 22.392303 0 0 1-15.674612 6.71769z m-88.00175-308.118084a68.744369 68.744369 0 0 0-48.591296 117.335666l136.593046 136.593046 136.593046-136.593046A68.744369 68.744369 0 1 0 654.974852 291.099934l-22.392302 22.392303a22.392303 22.392303 0 0 1-31.79707 0l-22.392303-22.392303a68.744369 68.744369 0 0 0-50.606604-19.929149z" fill="#2AADD3" /></svg>