<?xml version="1.0" standalone="no"?><!DOCTYPE svg PUBLIC "-//W3C//DTD SVG 1.1//EN" "http://www.w3.org/Graphics/SVG/1.1/DTD/svg11.dtd"><svg class="icon" width="200px" height="200.00px" viewBox="0 0 1024 1024" version="1.1" xmlns="http://www.w3.org/2000/svg"><path d="M384 652.8h256c77.76 0 140.8 63.04 140.8 140.8v64a76.8 76.8 0 0 1-76.8 76.8H320a76.8 76.8 0 0 1-76.8-76.8v-64c0-77.76 63.04-140.8 140.8-140.8z m89.6-524.8h64c91.904 0 166.4 74.496 166.4 166.4v89.6c0 91.904-74.496 166.4-166.4 166.4h-64c-91.904 0-166.4-74.496-166.4-166.4v-89.6c0-91.904 74.496-166.4 166.4-166.4z" fill="#1989FA" /><path d="M699.136 537.6C733.9776 503.2064 755.2 457.6384 755.2 407.6544V270.7456c0-38.4-12.5312-74.2144-34.1504-104.3456H729.6c91.904 0 166.4 74.496 166.4 166.4v38.4c0 91.904-74.496 166.4-166.4 166.4h-30.464zM290.112 166.4512C268.5184 196.5696 256 232.3584 256 270.7456v136.9088c0 49.984 21.2224 95.552 56.064 129.9456H294.4c-91.904 0-166.4-74.496-166.4-166.4v-38.4c0-90.4704 72.192-164.0704 162.112-166.3488zM831.36 870.4c0.4096-4.2112 0.6272-8.4864 0.6272-12.8v-64c0-71.1296-38.6816-133.2224-96.1536-166.4H838.4a121.6 121.6 0 0 1 121.6 121.6V793.6a76.8 76.8 0 0 1-76.8 76.8h-51.84zM288.128 627.2C230.6816 660.3776 192 722.4704 192 793.6v64c0 8.768 0.8832 17.3312 2.56 25.6H140.8a76.8 76.8 0 0 1-76.8-76.8v-51.2c0-70.6944 57.3056-128 128-128h96.1536z" fill="#1989FA" opacity=".3" /></svg>