<?xml version="1.0" standalone="no"?><!DOCTYPE svg PUBLIC "-//W3C//DTD SVG 1.1//EN" "http://www.w3.org/Graphics/SVG/1.1/DTD/svg11.dtd"><svg class="icon" width="200px" height="199.61px" viewBox="0 0 1026 1024" version="1.1" xmlns="http://www.w3.org/2000/svg"><path d="M276.998693 330.624837h487.203137v161.966013H276.998693zM285.23085 566.680261h478.97098v153.717125H285.23085z" fill="#EBFBF2" /><path d="M793.784052 89.884444l75.327582-28.963137c11.578562-2.894641 14.489935-17.384575 11.578562-26.068497-2.894641-11.595294-17.384575-14.489935-26.068497-11.595294l-112.97464 46.347713s-2.894641 0-2.894641 2.89464h-2.89464c-2.894641 0-2.894641 2.894641-2.894641 5.789281s0 2.894641-2.89464 5.789281v2.894641l-2.894641 124.569935c0 11.578562 8.683922 20.279216 20.279216 20.279215 11.578562 0 20.279216-8.700654 20.279216-20.279215l2.89464-89.817517c136.165229 86.906144 217.282092 234.666667 217.282092 396.88366 0 228.860654-162.233725 422.968889-388.199739 463.510589-11.595294 2.894641-17.384575 11.595294-17.384575 23.173856 2.894641 8.683922 11.595294 17.384575 20.279216 17.384575h2.89464c243.350588-43.453072 420.057516-257.840523 420.057516-504.085752-0.016732-173.778824-86.922876-336.012549-231.772026-428.707974zM292.592941 950.295425l-2.89464-121.675294c0-11.595294-11.578562-20.279216-20.279216-20.279216-11.578562 0-20.279216 8.700654-20.279216 20.279216v81.116862C118.780654 822.814118 37.663791 675.070327 37.663791 515.731242c2.894641-240.439216 185.407582-440.336732 425.863529-466.405229 11.595294 0 20.279216-11.578562 17.384575-23.173856 0-11.578562-11.578562-20.279216-23.173856-17.384575C197.002876 37.730719 0 255.01281 0 518.625882c0 173.812288 86.906144 333.151373 231.755294 428.75817l-81.116863 37.663791c-11.595294 5.789281-14.489935 17.384575-8.700653 26.068497 2.894641 8.700654 11.595294 11.595294 17.384575 11.595294 2.894641 0 5.789281 0 8.683922-2.894641l112.991372-52.153725h2.894641c2.894641 0 2.894641-2.894641 5.789281-2.894641l5.789281-5.789281c-2.877908-2.894641-2.877908-5.789281-2.877909-8.683921z m0 0" fill="#08CE5B" /><path d="M257.840523 356.408889v112.97464c0 26.068497 20.279216 49.242353 49.242353 49.242353h434.547451c26.068497 0 49.242353-20.279216 49.242353-49.242353v-112.97464c0-26.068497-20.279216-46.347712-46.347713-46.347713H309.977516c-28.963137-2.911373-52.136993 17.367843-52.136993 46.347713z m489.595817-2.911373v112.974641c0 2.894641-2.894641 8.700654-8.683922 8.700653H304.188235c-2.894641 0-8.683922-2.894641-8.683921-8.700653v-112.974641c0-2.894641 2.894641-8.700654 8.683921-8.700653h434.547451c5.806013 2.911373 8.700654 5.806013 8.700654 8.700653z m0 0" fill="#08CE5B" /><path d="M347.641307 431.719739h78.222222c11.578562 0 20.279216-8.700654 20.279216-20.279216 0-11.595294-8.700654-20.279216-20.279216-20.279216h-78.222222c-11.595294 0-20.279216 8.700654-20.279215 20.279216 0 11.595294 8.700654 20.279216 20.279215 20.279216z m440.353464 269.419085v-112.991373c0-26.068497-20.279216-46.347712-46.347712-46.347712H307.082876c-26.068497 0-49.242353 20.279216-49.242353 49.242353v112.991372c0 26.068497 20.279216 49.242353 49.242353 49.242353h434.547451c26.085229-2.877908 46.364444-26.051765 46.364444-52.136993z m-489.595817 0v-112.991373c0-2.894641 2.894641-8.683922 8.700654-8.683922h434.547451c2.894641 0 5.789281 2.894641 5.789281 5.789281v112.974641c0 2.894641-2.894641 8.700654-8.683922 8.700654H304.188235c-2.894641 2.911373-5.789281-2.877908-5.789281-5.789281z m0 0" fill="#08CE5B" /><path d="M428.75817 625.827974H350.535948c-11.595294 0-20.279216 8.683922-20.279216 20.279216 0 11.595294 8.683922 20.279216 20.279216 20.279215h78.222222c11.578562 0 20.279216-8.683922 20.279216-20.279215 0-11.595294-11.595294-20.279216-20.279216-20.279216z m0 0" fill="#08CE5B" /></svg>